<svg width="19.000000" height="23.000000" viewBox="0 0 19 23" fill="none" xmlns="http://www.w3.org/2000/svg" xmlns:xlink="http://www.w3.org/1999/xlink">
	<desc>
			Created with Pixso.
	</desc>
	<defs/>
	<path id="Vector" d="M17.16 5.16L13.66 5.16L13.66 4C13.66 2.76 13.17 1.57 12.29 0.7C11.42 -0.18 10.23 -0.67 8.99 -0.67C7.76 -0.67 6.57 -0.18 5.7 0.7C4.82 1.57 4.33 2.76 4.33 4L4.33 5.16L0.83 5.16C0.52 5.16 0.22 5.28 0 5.5C-0.22 5.72 -0.34 6.02 -0.34 6.33L-0.34 19.16C-0.34 20.09 0.03 20.98 0.69 21.64C1.34 22.29 2.23 22.66 3.16 22.66L14.83 22.66C15.76 22.66 16.65 22.29 17.3 21.64C17.96 20.98 18.33 20.09 18.33 19.16L18.33 6.33C18.33 6.02 18.21 5.72 17.99 5.5C17.77 5.28 17.47 5.16 17.16 5.16ZM6.66 4C6.66 3.38 6.91 2.78 7.35 2.35C7.78 1.91 8.38 1.66 8.99 1.66C9.61 1.66 10.21 1.91 10.64 2.35C11.08 2.78 11.33 3.38 11.33 4L11.33 5.16L6.66 5.16L6.66 4ZM15.99 19.16C15.99 19.47 15.87 19.77 15.65 19.99C15.43 20.21 15.14 20.33 14.83 20.33L3.16 20.33C2.85 20.33 2.56 20.21 2.34 19.99C2.12 19.77 1.99 19.47 1.99 19.16L1.99 7.5L4.33 7.5L4.33 8.66C4.33 8.97 4.45 9.27 4.67 9.49C4.89 9.71 5.19 9.83 5.49 9.83C5.8 9.83 6.1 9.71 6.32 9.49C6.54 9.27 6.66 8.97 6.66 8.66L6.66 7.5L11.33 7.5L11.33 8.66C11.33 8.97 11.45 9.27 11.67 9.49C11.89 9.71 12.19 9.83 12.49 9.83C12.8 9.83 13.1 9.71 13.32 9.49C13.54 9.27 13.66 8.97 13.66 8.66L13.66 7.5L15.99 7.5L15.99 19.16Z" fill="#AE1332" fill-opacity="1.000000" fill-rule="nonzero"/>
</svg>
