<svg width="44.000000" height="44.000000" viewBox="0 0 44 44" fill="none" xmlns="http://www.w3.org/2000/svg" xmlns:xlink="http://www.w3.org/1999/xlink">
	<desc>
			Created with Pixso.
	</desc>
	<defs>
		<clipPath id="clip45_2">
			<rect id="Frame 52" width="28.000000" height="28.000000" transform="translate(8.000000 8.000000)" fill="white" fill-opacity="0"/>
		</clipPath>
	</defs>
	<rect id="1" rx="9.500000" width="43.000000" height="43.000000" transform="translate(0.500000 0.500000)" fill="#FFFFFF" fill-opacity="0"/>
	<g opacity="0.800000">
		<g clip-path="url(#clip45_2)">
			<path id="Vector" d="M25.08 12.06C25.29 12.06 25.5 12.06 25.92 12.06L25.92 15.21C25.71 15.21 25.29 15.21 24.87 15.21C24.45 15.21 24.03 15.21 23.82 15.42C23.61 15.63 23.61 15.84 23.61 16.33C23.61 16.75 23.61 17.03 23.61 17.45L25.92 17.45L25.92 20.11L23.61 20.11L23.61 31.66L20.04 31.66L20.04 20.04L18.15 20.04L18.15 17.38L20.04 17.38L20.04 16.47C20.04 14.93 20.25 13.81 20.67 13.32C21.3 12.41 22.56 11.99 24.45 11.99C24.66 12.06 24.87 12.06 25.08 12.06Z" fill="#FF8F52" fill-opacity="1.000000" fill-rule="nonzero"/>
		</g>
	</g>
	<rect id="1" rx="9.500000" width="43.000000" height="43.000000" transform="translate(0.500000 0.500000)" stroke="#FF8F52" stroke-opacity="1.000000" stroke-width="1.000000"/>
</svg>
