<svg width="13.000000" height="18.000000" viewBox="0 0 13 18" fill="none" xmlns="http://www.w3.org/2000/svg" xmlns:xlink="http://www.w3.org/1999/xlink">
	<desc>
			Created with Pixso.
	</desc>
	<defs>
		<clipPath id="clip3_147">
			<rect id="location-dot-solid 1" width="13.000000" height="18.000000" fill="white" fill-opacity="0"/>
		</clipPath>
	</defs>
	<rect id="location-dot-solid 1" width="13.000000" height="18.000000" fill="#FFFFFF" fill-opacity="0"/>
	<g clip-path="url(#clip3_147)">
		<path id="Vector" d="M5.69 17.54C3.93 15.29 0 9.82 0 6.75C0 3.02 2.91 0 6.5 0C10.08 0 13 3.02 13 6.75C13 9.82 9.03 15.29 7.3 17.54C6.88 18.08 6.11 18.08 5.69 17.54ZM6.5 9C7.69 9 8.66 7.99 8.66 6.75C8.66 5.5 7.69 4.5 6.5 4.5C5.3 4.5 4.33 5.5 4.33 6.75C4.33 7.99 5.3 9 6.5 9Z" fill="#838383" fill-opacity="1.000000" fill-rule="nonzero"/>
	</g>
</svg>
