<svg width="18.000000" height="18.000000" viewBox="0 0 18 18" fill="none" xmlns="http://www.w3.org/2000/svg" xmlns:xlink="http://www.w3.org/1999/xlink">
	<desc>
			Created with Pixso.
	</desc>
	<defs>
		<clipPath id="clip3_151">
			<rect id="phone-solid 1" width="18.000000" height="18.000000" fill="white" fill-opacity="0"/>
		</clipPath>
	</defs>
	<rect id="phone-solid 1" width="18.000000" height="18.000000" fill="#FFFFFF" fill-opacity="0"/>
	<g clip-path="url(#clip3_151)">
		<path id="Vector" d="M17.97 13.6L17.15 17.14C17.03 17.65 16.59 18 16.08 18C7.21 18 0 10.78 0 1.91C0 1.4 0.35 0.95 0.85 0.84L4.39 0.02C4.91 -0.1 5.43 0.17 5.65 0.66L7.28 4.47C7.47 4.92 7.35 5.45 6.97 5.76L5.08 7.28C6.27 9.71 8.25 11.69 10.68 12.88L12.23 10.99C12.54 10.61 13.07 10.48 13.51 10.68L17.33 12.31C17.79 12.55 18.09 13.09 17.97 13.6Z" fill="#838383" fill-opacity="1.000000" fill-rule="nonzero"/>
	</g>
</svg>
