<svg width="18.000000" height="18.000000" viewBox="0 0 18 18" fill="none" xmlns="http://www.w3.org/2000/svg" xmlns:xlink="http://www.w3.org/1999/xlink">
	<desc>
			Created with Pixso.
	</desc>
	<defs>
		<clipPath id="clip3_154">
			<rect id="at-solid 1" width="18.000000" height="18.000000" fill="white" fill-opacity="0"/>
		</clipPath>
	</defs>
	<rect id="at-solid 1" width="18.000000" height="18.000000" fill="#FFFFFF" fill-opacity="0"/>
	<g clip-path="url(#clip3_154)">
		<path id="Vector" d="M7.3 0.72C4.02 1.37 1.37 4.02 0.73 7.3C-0.25 12.26 3.14 16.66 7.73 17.32C8.39 17.43 9 16.89 9 16.22L9 16.19C9 15.64 8.6 15.18 8.05 15.1C5.09 14.64 2.81 12.07 2.81 8.97C2.81 5.35 5.92 2.45 9.61 2.81C12.83 3.12 15.18 6.01 15.18 9.25L15.18 9.81C15.18 10.59 14.55 11.22 13.78 11.22C13 11.22 12.37 10.59 12.37 9.81L12.37 5.59C12.37 5.28 12.12 5.03 11.81 5.03L10.68 5.03C10.43 5.03 10.22 5.2 10.15 5.44C9.28 5.01 8.25 4.86 7.13 5.26C5.76 5.74 4.73 6.98 4.53 8.41C4.2 10.84 6.07 12.91 8.43 12.91C9.36 12.91 10.21 12.58 10.88 12.04C11.72 13.14 13.17 13.75 14.73 13.35C16.35 12.98 17.43 11.39 17.4 9.74L17.4 9.01C17.4 3.76 12.69 -0.33 7.3 0.72ZM8.4 10.69C7.47 10.69 6.71 9.94 6.71 9C6.71 8.07 7.47 7.31 8.4 7.31C9.33 7.31 10.09 8.07 10.09 9C10.09 9.94 9.36 10.69 8.4 10.69Z" fill="#838383" fill-opacity="1.000000" fill-rule="nonzero"/>
	</g>
</svg>
