<svg width="44.000000" height="44.000000" viewBox="0 0 44 44" fill="none" xmlns="http://www.w3.org/2000/svg" xmlns:xlink="http://www.w3.org/1999/xlink">
	<desc>
			Created with Pixso.
	</desc>
	<defs>
		<clipPath id="clip28_133">
			<rect id="icons / 40x40 / instagram" width="28.000000" height="28.000000" transform="translate(8.000000 8.000000)" fill="white" fill-opacity="0"/>
		</clipPath>
	</defs>
	<rect id="2" rx="9.500000" width="43.000000" height="43.000000" transform="translate(0.500000 0.500000)" fill="#FFFFFF" fill-opacity="0"/>
	<g opacity="0.800000">
		<rect id="icons / 40x40 / instagram" width="28.000000" height="28.000000" transform="translate(8.000000 8.000000)" fill="#FFFFFF" fill-opacity="0"/>
		<g clip-path="url(#clip28_133)">
			<path id="Vector" d="M33.12 17.41C33.11 16.47 32.94 15.53 32.6 14.65C32.02 13.15 30.83 11.97 29.33 11.38C28.46 11.06 27.54 10.88 26.61 10.86C25.41 10.81 25.03 10.79 21.99 10.79C18.96 10.79 18.57 10.79 17.38 10.86C16.45 10.88 15.53 11.06 14.66 11.38C13.16 11.97 11.97 13.15 11.39 14.65C11.06 15.52 10.88 16.44 10.86 17.37C10.81 18.56 10.8 18.94 10.8 21.98C10.8 25.01 10.8 25.39 10.86 26.58C10.88 27.51 11.06 28.43 11.39 29.3C11.97 30.8 13.16 31.99 14.66 32.57C15.53 32.9 16.45 33.1 17.38 33.13C18.58 33.18 18.96 33.19 22 33.19C25.03 33.19 25.42 33.19 26.61 33.13C27.54 33.11 28.46 32.93 29.33 32.6C30.83 32.02 32.02 30.84 32.6 29.34C32.93 28.47 33.11 27.55 33.13 26.62C33.18 25.42 33.2 25.05 33.2 22.01C33.19 18.98 33.19 18.59 33.12 17.41ZM21.99 27.71C18.81 27.71 16.24 25.14 16.24 21.97C16.24 18.8 18.81 16.23 21.99 16.23C25.16 16.23 27.74 18.8 27.74 21.97C27.74 25.14 25.16 27.71 21.99 27.71ZM27.97 17.35C27.22 17.35 26.62 16.76 26.62 16.02C26.62 15.28 27.22 14.68 27.97 14.68C28.71 14.68 29.31 15.28 29.31 16.02C29.31 16.76 28.71 17.35 27.97 17.35Z" fill="#FF8F52" fill-opacity="1.000000" fill-rule="nonzero"/>
			<path id="Vector" d="M25.49 21.97C25.49 23.91 23.92 25.47 21.99 25.47C20.05 25.47 18.48 23.91 18.48 21.97C18.48 20.04 20.05 18.47 21.99 18.47C23.92 18.47 25.49 20.04 25.49 21.97Z" fill="#FF8F52" fill-opacity="1.000000" fill-rule="evenodd"/>
		</g>
	</g>
	<rect id="2" rx="9.500000" width="43.000000" height="43.000000" transform="translate(0.500000 0.500000)" stroke="#FF8F52" stroke-opacity="1.000000" stroke-width="1.000000"/>
</svg>
