<svg width="20.000000" height="20.000000" viewBox="0 0 20 20" fill="none" xmlns="http://www.w3.org/2000/svg" xmlns:xlink="http://www.w3.org/1999/xlink">
	<desc>
			Created with Pixso.
	</desc>
	<defs/>
	<path id="Vector" d="M0 6.71L0 6.45C0 3.29 1.97 0.6 4.66 0.08C6.41 -0.26 8.25 0.41 9.53 1.88L9.54 1.9C9.78 2.17 10.2 2.17 10.43 1.88C11.74 0.41 13.55 -0.26 15.33 0.08C18.02 0.6 20 3.29 20 6.45L20 6.71C20 8.58 19.32 10.37 18.14 11.65L11.08 19.26C10.78 19.58 10.4 19.75 10 19.75C9.59 19.75 9.21 19.58 8.91 19.26L1.85 11.65C0.67 10.37 0 8.58 0 6.71Z" fill="#FF8F52" fill-opacity="1.000000" fill-rule="nonzero"/>
</svg>
