<svg width="21.000000" height="21.000000" viewBox="0 0 21 21" fill="none" xmlns="http://www.w3.org/2000/svg" xmlns:xlink="http://www.w3.org/1999/xlink">
	<desc>
			Created with Pixso.
	</desc>
	<defs/>
	<path id="Vector" d="M0 6.7L0 6.43C0 3.14 2.05 0.34 4.85 -0.2C6.67 -0.56 8.59 0.14 9.92 1.68L9.93 1.69C10.18 1.98 10.62 1.97 10.86 1.68C12.22 0.14 14.11 -0.56 15.96 -0.2C18.76 0.34 20.82 3.14 20.82 6.43L20.82 6.7C20.82 8.65 20.12 10.51 18.88 11.84L11.53 19.77C11.23 20.1 10.82 20.28 10.41 20.28C9.99 20.28 9.58 20.1 9.28 19.77L1.93 11.84C0.7 10.51 0 8.65 0 6.7Z" fill="#C5C5C5" fill-opacity="1.000000" fill-rule="nonzero"/>
</svg>
