<svg width="40.000000" height="40.000000" viewBox="0 0 40 40" fill="none" xmlns="http://www.w3.org/2000/svg" xmlns:xlink="http://www.w3.org/1999/xlink">
	<desc>
			Created with Pixso.
	</desc>
	<defs/>
	<circle id="Эллипс 1" cx="20.000000" cy="20.000000" r="20.000000" fill="#FAFAFA" fill-opacity="1.000000"/>
	<path id="Vector" d="M14.71 10.05L12.33 10.05C11.59 10.05 11 10.63 11 11.35L11 13.68C11 14.4 11.59 14.99 12.33 14.99L14.71 14.99C15.44 14.99 16.04 14.4 16.04 13.68L16.04 11.35C16.04 10.63 15.44 10.05 14.71 10.05ZM21.44 10.13L19.06 10.13C18.32 10.13 17.73 10.71 17.73 11.43L17.73 13.76C17.73 14.48 18.32 15.07 19.06 15.07L21.44 15.07C22.17 15.07 22.77 14.48 22.77 13.76L22.77 11.43C22.77 10.71 22.17 10.13 21.44 10.13ZM28.26 10.18L25.88 10.18C25.15 10.18 24.55 10.76 24.55 11.48L24.55 13.82C24.55 14.54 25.15 15.12 25.88 15.12L28.26 15.12C29 15.12 29.59 14.54 29.59 13.82L29.59 11.48C29.59 10.76 29 10.18 28.26 10.18ZM14.71 16.87L12.33 16.87C11.59 16.87 11 17.46 11 18.18L11 20.51C11 21.23 11.59 21.81 12.33 21.81L14.71 21.81C15.44 21.81 16.04 21.23 16.04 20.51L16.04 18.18C16.04 17.46 15.44 16.87 14.71 16.87ZM21.73 16.94L19.35 16.94C18.61 16.94 18.02 17.52 18.02 18.24L18.02 20.58C18.02 21.3 18.61 21.88 19.35 21.88L21.73 21.88C22.46 21.88 23.06 21.3 23.06 20.58L23.06 18.24C23.06 17.52 22.46 16.94 21.73 16.94ZM28.24 17.08L25.86 17.08C25.12 17.08 24.53 17.66 24.53 18.38L24.53 20.71C24.53 21.43 25.12 22.02 25.86 22.02L28.24 22.02C28.97 22.02 29.57 21.43 29.57 20.71L29.57 18.38C29.57 17.66 28.97 17.08 28.24 17.08ZM21.54 23.64L19.16 23.64C18.43 23.64 17.83 24.22 17.83 24.94L17.83 27.27C17.83 27.99 18.43 28.58 19.16 28.58L21.54 28.58C22.28 28.58 22.87 27.99 22.87 27.27L22.87 24.94C22.87 24.22 22.28 23.64 21.54 23.64ZM28.41 23.64L26.03 23.64C25.3 23.64 24.7 24.22 24.7 24.94L24.7 27.27C24.7 27.99 25.3 28.58 26.03 28.58L28.41 28.58C29.15 28.58 29.74 27.99 29.74 27.27L29.74 24.94C29.74 24.22 29.15 23.64 28.41 23.64ZM14.99 23.68L12.43 23.68C11.64 23.68 11 24.26 11 24.98L11 27.31C11 28.03 11.64 28.62 12.43 28.62L14.99 28.62C15.78 28.62 16.42 28.03 16.42 27.31L16.42 24.98C16.42 24.26 15.78 23.68 14.99 23.68Z" fill="#D5435F" fill-opacity="1.000000" fill-rule="evenodd"/>
</svg>
