<svg width="44.000000" height="44.000000" viewBox="0 0 44 44" fill="none" xmlns="http://www.w3.org/2000/svg" xmlns:xlink="http://www.w3.org/1999/xlink">
	<desc>
			Created with Pixso.
	</desc>
	<defs>
		<clipPath id="clip45_14">
			<rect id="Frame 60" width="28.000000" height="28.000000" transform="translate(8.000000 8.000000)" fill="white" fill-opacity="0"/>
		</clipPath>
	</defs>
	<rect id="3" rx="9.500000" width="43.000000" height="43.000000" transform="translate(0.500000 0.500000)" fill="#FFFFFF" fill-opacity="0"/>
	<g opacity="0.800000">
		<g clip-path="url(#clip45_14)">
			<path id="Vector" d="M29.21 13.24C28.02 13.17 25.57 13.1 21.86 13.1L21.37 13.1C17.79 13.1 15.42 13.17 14.23 13.31C12.62 13.46 11.5 13.87 10.87 14.43C10.31 14.92 9.89 15.83 9.75 17.02C9.67 17.79 9.6 19.4 9.6 21.85L9.6 22.21C9.6 24.51 9.67 26.12 9.81 26.89C10.03 28.01 10.38 28.85 11.08 29.34C11.78 29.9 12.97 30.25 14.65 30.39C15.84 30.47 18.29 30.53 22 30.53L22.49 30.53C26.06 30.53 28.44 30.47 29.63 30.32C31.24 30.18 32.36 29.76 32.99 29.21C33.55 28.72 33.97 27.8 34.11 26.61C34.18 25.84 34.25 24.23 34.25 21.78L34.25 21.43C34.25 19.12 34.18 17.51 34.04 16.74C33.83 15.62 33.48 14.78 32.78 14.29C32.08 13.73 30.89 13.38 29.21 13.24ZM26.48 21.85L18.78 26.48L18.78 17.23L26.48 21.85Z" fill="#FF8F52" fill-opacity="1.000000" fill-rule="evenodd"/>
		</g>
	</g>
	<rect id="3" rx="9.500000" width="43.000000" height="43.000000" transform="translate(0.500000 0.500000)" stroke="#FF8F52" stroke-opacity="1.000000" stroke-width="1.000000"/>
</svg>
